<?xml version="1.0" encoding="utf-8"?>
<!-- Generator: Adobe Illustrator 16.0.0, SVG Export Plug-In . SVG Version: 6.00 Build 0)  -->
<!DOCTYPE svg PUBLIC "-//W3C//DTD SVG 1.1//EN" "http://www.w3.org/Graphics/SVG/1.1/DTD/svg11.dtd">
<svg version="1.1" id="Capa_1" xmlns="http://www.w3.org/2000/svg" xmlns:xlink="http://www.w3.org/1999/xlink" x="0px" y="0px"
	 width="1200px" height="1200px" viewBox="0 0 1200 1200" enable-background="new 0 0 1200 1200" xml:space="preserve">
<g>
	<g>
		<path fill="#4E4E4E" d="M1031.502,1150H168.498C103.158,1150,50,1096.842,50,1031.5V168.497C50,103.158,103.158,50,168.498,50
			h863.004C1096.842,50,1150,103.158,1150,168.497V1031.5C1150,1096.842,1096.842,1150,1031.502,1150z M168.498,89.499
			c-43.561,0-78.999,35.438-78.999,78.998V1031.5c0,43.563,35.438,79,78.999,79h863.004c43.561,0,78.998-35.438,78.998-79V168.497
			c0-43.561-35.438-78.998-78.998-78.998H168.498z"/>
	</g>
	<g>
		<path fill="#4E4E4E" d="M1021.904,1093.527h-843.81c-39.493,0-71.623-32.131-71.623-71.623V178.096
			c0-39.493,32.13-71.624,71.623-71.624h843.81c39.492,0,71.625,32.131,71.625,71.624v843.809
			C1093.529,1061.396,1061.396,1093.527,1021.904,1093.527z M178.095,122.271c-30.779,0-55.823,25.045-55.823,55.825v843.809
			c0,30.781,25.044,55.824,55.823,55.824h843.81c30.779,0,55.824-25.043,55.824-55.824V178.096c0-30.78-25.045-55.825-55.824-55.825
			H178.095z"/>
	</g>
</g>
</svg>
